<svg width="244" height="60" viewBox="0 0 244 60" fill="none" xmlns="http://www.w3.org/2000/svg">
<path d="M47.4667 5C47.4133 5 47.4133 5 47.4133 5C40.4267 5 33.8133 7.72 28.8533 12.5733C26.3467 11.5067 23.5733 10.92 20.7467 10.92C9.33333 10.92 0 20.2 0 31.6667C0 43.1333 9.28 52.4133 20.7467 52.4133C23.52 52.4133 26.2933 51.8267 28.8 50.76C33.6 55.4533 40.16 58.3333 47.36 58.3333C62.08 58.3333 74.0267 46.3867 74.0267 31.6667C74.08 17 62.1333 5 47.4667 5ZM47.4133 52.4133C36 52.4133 26.6667 43.1333 26.6667 31.6667H20.7467C20.7467 36.8933 22.24 41.8 24.8533 45.9067C23.52 46.28 22.1333 46.4933 20.7467 46.4933C12.5867 46.4933 5.92 39.8267 5.92 31.6667C5.92 23.5067 12.5867 16.84 20.7467 16.84C24 16.84 27.04 17.8533 29.6533 19.8267C33.44 22.6533 35.5733 26.9733 35.5733 31.6667H41.5467C41.5467 25.48 38.88 19.72 34.1333 15.7733C37.8667 12.68 42.56 10.92 47.4667 10.92C58.88 10.92 68.2133 20.2533 68.2133 31.6667C68.16 43.08 58.88 52.4133 47.4133 52.4133Z" fill="white"/>
<path d="M88.36 46.6667H93.7733V34.6267C93.7733 30.7067 95.92 28.2333 99.14 28.2333C102.453 28.2333 104.227 30.38 104.227 33.9267V46.6667H109.64V32.9C109.64 26.9267 106.373 23.24 100.773 23.24C97.5533 23.24 95.22 24.64 93.7733 26.8333V23.8H88.36V46.6667Z" fill="white"/>
<path d="M122.088 17.1267C122.088 15.3067 120.642 13.7667 118.728 13.7667C116.908 13.7667 115.415 15.26 115.415 17.1267C115.415 18.9467 116.908 20.44 118.728 20.44C120.642 20.44 122.088 18.9467 122.088 17.1267ZM116.068 23.8V46.6667H121.482V23.8H116.068Z" fill="white"/>
<path d="M128.191 46.6667H133.604V34.5333C133.604 30.6133 135.517 28.1867 138.504 28.1867C141.351 28.1867 142.891 30.2867 142.891 33.8333V46.6667H148.304V34.3C148.351 30.5667 150.264 28.1867 153.204 28.1867C156.051 28.1867 157.591 30.2867 157.591 33.6467V46.6667H163.004V32.62C163.004 26.88 159.971 23.24 154.697 23.24C150.917 23.24 148.304 25.2933 147.091 27.4867C145.831 24.8267 143.451 23.24 140.137 23.24C137.011 23.24 134.864 24.64 133.604 26.8333V23.8H128.191V46.6667Z" fill="white"/>
<path d="M169.434 46.6667H174.801V43.54C176.481 45.92 179.374 47.2267 182.548 47.2267C188.848 47.2267 193.701 41.9533 193.701 35.2333C193.701 28.3733 188.848 23.24 182.548 23.24C179.374 23.24 176.481 24.6867 174.801 27.0667V14H169.434V46.6667ZM188.288 35.2333C188.288 39.1533 185.301 42.3267 181.428 42.3267C177.554 42.3267 174.568 39.1533 174.568 35.2333C174.568 31.3133 177.554 28.14 181.428 28.14C185.301 28.14 188.288 31.3133 188.288 35.2333Z" fill="white"/>
<path d="M208.813 47.2267C215.16 47.2267 218.987 43.4 218.987 36.82V23.8H213.573V36.4933C213.573 40.0867 211.8 42.2334 208.813 42.2334C205.827 42.2334 204.053 40.0867 204.053 36.4933V23.8H198.64V36.82C198.64 43.4 202.467 47.2267 208.813 47.2267Z" fill="white"/>
<path d="M227.777 39.1067L223.39 41.3934C224.697 44.94 227.963 47.2267 232.257 47.2267C236.737 47.2267 240.657 44.52 240.657 39.8533C240.657 36.82 238.93 34.6267 234.637 33.18L231.93 32.2933C230.203 31.7333 229.363 30.8933 229.363 29.82C229.363 28.5133 230.577 27.72 232.117 27.72C233.843 27.72 235.197 28.9333 236.083 30.7533L240.423 28.42C238.977 25.2467 235.85 23.24 232.117 23.24C227.823 23.24 224.23 25.9467 224.23 30.24C224.23 33.4133 226.19 35.6067 230.063 36.8667L232.817 37.7534C234.637 38.3134 235.43 38.9667 235.43 40.2267C235.43 41.86 234.03 42.6067 232.35 42.6067C230.297 42.6067 228.57 41.2067 227.777 39.1067Z" fill="white"/>
</svg>
